<?xml version="1.0" encoding="utf-8"?>
<!-- Generator: Adobe Illustrator 16.0.0, SVG Export Plug-In . SVG Version: 6.00 Build 0)  -->
<!DOCTYPE svg PUBLIC "-//W3C//DTD SVG 1.1//EN" "http://www.w3.org/Graphics/SVG/1.1/DTD/svg11.dtd">
<svg version="1.1" id="Layer_1" xmlns="http://www.w3.org/2000/svg" xmlns:xlink="http://www.w3.org/1999/xlink" x="0px" y="0px"
	 width="400px" height="100px" viewBox="0 0 400 100" enable-background="new 0 0 400 100" xml:space="preserve">
<path id="SVGID_2_" fill="#FFFFFF" d="M38.731,40.764c-1.311-1.24-2.848-2.286-4.607-3.132c-1.767-0.852-3.63-1.274-5.591-1.274
	c-1.504,0-2.885,0.291-4.16,0.879c-1.275,0.589-1.916,1.601-1.916,3.042c0,1.372,0.703,2.348,2.11,2.937
	c1.406,0.589,3.675,1.24,6.813,1.961c1.828,0.396,3.675,0.949,5.531,1.663c1.864,0.721,3.543,1.669,5.046,2.848
	c1.503,1.17,2.716,2.611,3.631,4.309c0.914,1.697,1.372,3.727,1.372,6.074c0,3.07-0.624,5.672-1.864,7.791
	c-1.24,2.127-2.858,3.842-4.853,5.144c-1.988,1.31-4.229,2.259-6.709,2.849c-2.488,0.588-4.968,0.879-7.447,0.879
	c-3.991,0-7.895-0.635-11.712-1.908c-3.824-1.275-7.007-3.155-9.556-5.637l9.013-9.504c1.44,1.565,3.199,2.875,5.292,3.914
	c2.092,1.047,4.316,1.573,6.665,1.573c1.309,0,2.601-0.308,3.876-0.932c1.267-0.624,1.908-1.716,1.908-3.28
	c0-1.503-0.783-2.618-2.355-3.332c-1.565-0.72-4.018-1.477-7.351-2.259c-1.697-0.388-3.395-0.914-5.091-1.565
	c-1.698-0.65-3.219-1.537-4.555-2.646c-1.345-1.108-2.436-2.479-3.288-4.115c-0.845-1.634-1.275-3.595-1.275-5.881
	c0-2.938,0.624-5.442,1.864-7.5c1.239-2.057,2.84-3.736,4.801-5.047c1.961-1.302,4.132-2.268,6.516-2.892
	c2.39-0.616,4.755-0.924,7.111-0.924c3.657,0,7.228,0.572,10.727,1.714c3.498,1.143,6.453,2.858,8.871,5.144L38.731,40.764z
	 M73.146,38.318v18.688c0,2.299,0.44,4.018,1.319,5.17c0.887,1.146,2.469,1.719,4.756,1.719c0.783,0,1.617-0.062,2.497-0.194
	c0.879-0.132,1.617-0.333,2.207-0.589l0.194,11.755c-1.109,0.396-2.515,0.737-4.212,1.028c-1.698,0.299-3.402,0.447-5.099,0.447
	c-3.263,0-6.006-0.414-8.229-1.232c-2.225-0.817-4.001-1.998-5.338-3.539c-1.344-1.541-2.304-3.371-2.892-5.502
	c-0.589-2.123-0.887-4.5-0.887-7.123V38.318h-7.834V26.361h7.737V13.524h15.782v12.837H84.61v11.957H73.146z M120.902,82.516
	c-0.984,2.549-2.075,4.817-3.288,6.807c-1.206,1.994-2.646,3.691-4.309,5.099c-1.67,1.406-3.63,2.462-5.881,3.183
	c-2.252,0.721-4.916,1.082-7.984,1.082c-1.504,0-3.06-0.098-4.659-0.299c-1.601-0.193-2.99-0.457-4.167-0.783l1.767-13.521
	c0.783,0.262,1.652,0.475,2.594,0.641c0.948,0.158,1.818,0.238,2.602,0.238c2.479,0,4.273-0.572,5.39-1.714
	c1.108-1.144,2.057-2.761,2.84-4.847l1.565-4.018l-20.38-48.022h17.838l10.876,31.362h0.291l9.706-31.362h17.049L120.902,82.516z
	 M143.546,75.166V1.075h16.363v74.09L143.546,75.166L143.546,75.166z M212.964,51.348c0,0.659,0,1.312,0,1.961
	c0,0.651-0.028,1.274-0.097,1.863h-35.379c0.131,1.372,0.544,2.612,1.229,3.721c0.687,1.115,1.566,2.074,2.647,2.892
	c1.073,0.817,2.286,1.459,3.623,1.916c1.336,0.458,2.725,0.686,4.167,0.686c2.549,0,4.704-0.474,6.463-1.424
	c1.767-0.948,3.208-2.171,4.316-3.675l11.166,7.061c-2.285,3.332-5.303,5.892-9.063,7.692c-3.755,1.794-8.116,2.69-13.083,2.69
	c-3.658,0-7.114-0.571-10.384-1.713c-3.271-1.144-6.128-2.812-8.573-4.996c-2.452-2.188-4.378-4.887-5.785-8.088
	c-1.407-3.199-2.109-6.857-2.109-10.973c0-3.99,0.686-7.597,2.065-10.832c1.372-3.235,3.228-5.978,5.583-8.229
	c2.348-2.259,5.126-4,8.327-5.248c3.2-1.239,6.665-1.856,10.392-1.856c3.588,0,6.893,0.599,9.9,1.812
	c2.999,1.206,5.583,2.955,7.736,5.24c2.155,2.287,3.842,5.064,5.047,8.334C212.365,43.445,212.964,47.172,212.964,51.348z
	 M198.167,45.176c0-2.55-0.8-4.739-2.399-6.567c-1.602-1.829-4.002-2.744-7.202-2.744c-1.565,0-3.007,0.246-4.316,0.738
	c-1.302,0.484-2.445,1.161-3.429,2.005c-0.976,0.852-1.759,1.847-2.348,2.99c-0.589,1.143-0.915,2.338-0.984,3.577L198.167,45.176
	L198.167,45.176z M252.419,42.134c-0.915-1.17-2.153-2.119-3.72-2.84c-1.573-0.721-3.174-1.074-4.809-1.074
	c-1.699,0-3.229,0.343-4.601,1.029c-1.371,0.686-2.549,1.601-3.533,2.743c-0.978,1.144-1.741,2.463-2.303,3.966
	c-0.556,1.503-0.828,3.104-0.828,4.801c0,1.705,0.255,3.306,0.783,4.802c0.519,1.502,1.292,2.83,2.303,3.973
	s2.216,2.041,3.624,2.691c1.406,0.658,2.989,0.983,4.755,0.983c1.627,0,3.245-0.308,4.847-0.933
	c1.606-0.623,2.893-1.521,3.875-2.698l8.916,10.884c-2.022,1.96-4.643,3.492-7.843,4.607c-3.2,1.107-6.595,1.662-10.19,1.662
	c-3.853,0-7.45-0.588-10.795-1.768c-3.338-1.17-6.246-2.885-8.707-5.145c-2.469-2.25-4.401-4.977-5.82-8.176
	c-1.412-3.201-2.117-6.832-2.117-10.885c0-3.982,0.705-7.578,2.117-10.78c1.419-3.2,3.352-5.926,5.82-8.177
	c2.461-2.259,5.369-3.99,8.707-5.196c3.345-1.212,6.91-1.812,10.699-1.812c1.767,0,3.508,0.159,5.24,0.484
	c1.73,0.333,3.401,0.773,5.002,1.327c1.6,0.554,3.068,1.24,4.405,2.057c1.344,0.818,2.505,1.715,3.481,2.691L252.419,42.134z
	 M312.973,50.564c0,3.984-0.721,7.597-2.154,10.832c-1.441,3.229-3.401,5.979-5.881,8.23c-2.48,2.251-5.355,4.001-8.625,5.24
	c-3.264,1.24-6.762,1.863-10.489,1.863c-3.658,0-7.132-0.623-10.438-1.863c-3.297-1.239-6.172-2.989-8.616-5.24
	c-2.453-2.251-4.396-5.002-5.838-8.23c-1.434-3.234-2.154-6.848-2.154-10.832c0-3.981,0.721-7.578,2.154-10.778
	c1.441-3.199,3.385-5.916,5.838-8.133c2.444-2.223,5.319-3.921,8.616-5.099c3.304-1.178,6.778-1.759,10.438-1.759
	c3.728,0,7.226,0.582,10.489,1.759c3.27,1.178,6.145,2.875,8.625,5.099c2.479,2.217,4.439,4.934,5.881,8.133
	C312.252,42.986,312.973,46.583,312.973,50.564z M297.49,50.564c0-1.564-0.264-3.103-0.783-4.605
	c-0.527-1.503-1.275-2.823-2.258-3.966c-0.977-1.142-2.19-2.074-3.624-2.795c-1.441-0.72-3.104-1.081-5.002-1.081
	c-1.892,0-3.562,0.361-4.995,1.081c-1.441,0.721-2.629,1.653-3.578,2.795c-0.949,1.144-1.663,2.463-2.154,3.966
	c-0.492,1.503-0.738,3.041-0.738,4.605c0,1.565,0.246,3.104,0.738,4.607c0.492,1.504,1.223,2.857,2.207,4.062
	c0.977,1.214,2.189,2.18,3.623,2.894c1.44,0.722,3.104,1.081,5.002,1.081c1.891,0,3.562-0.359,4.995-1.081
	c1.433-0.713,2.646-1.679,3.623-2.894c0.983-1.205,1.714-2.559,2.206-4.062C297.245,53.669,297.49,52.131,297.49,50.564z
	 M377.869,75.166h-16.168l-9.609-30.385h-0.193l-9.407,30.385h-16.169l-16.854-48.805h17.347l8.424,30.87h0.298l8.722-30.87h16.169
	l9.013,30.87h0.193l8.528-30.87h16.661L377.869,75.166z"/>
<path fill="#505166" d="M261.729,31.352c-0.013-0.013-0.027-0.024-0.039-0.037c0.005,0.021,0.011,0.042,0.017,0.063L261.729,31.352z
	"/>
<path fill="#282933" d="M10.194,63.52l-5.375,5.668c1.636,1.593,3.536,2.934,5.696,4.03c1.061-1.403,1.549-2.957,1.89-4.632
	C12.191,66.723,11.423,65.03,10.194,63.52z"/>
<path fill="#282933" d="M41.957,49.687c-1.503-1.178-3.182-2.126-5.046-2.847c-1.856-0.714-3.703-1.268-5.531-1.663
	c-3.138-0.721-5.407-1.372-6.813-1.961c-1.407-0.589-2.11-1.565-2.11-2.937c0-1.441,0.641-2.453,1.916-3.042
	c1.275-0.588,2.656-0.879,4.16-0.879c1.961,0,3.824,0.422,5.591,1.274c1.759,0.846,3.296,1.892,4.607,3.131l8.817-9.107
	c-2.418-2.286-5.373-4.001-8.871-5.144c-2.964-0.968-5.984-1.5-9.061-1.649c-0.685,0.831-1.269,1.729-1.768,2.676
	c-2.252,4.274-4.712,8.483-7.183,12.676c-1.379,2.374-2.313,4.749-1.777,7.372c0.664,3.236,2.707,5.951,5.333,8.369
	c2.159,0.574,3.825,1.133,4.995,1.671c0.949,0.431,1.605,1.011,1.981,1.731c0.697,0.017,1.418-0.038,2.154-0.183
	c3.028-0.583,5.509-1.93,7.79-3.402c1.351-0.876,2.574-1.86,3.795-2.85C44.122,51.686,43.131,50.602,41.957,49.687z"/>
<path fill="#282933" d="M60.668,51.461c2.338-0.184,4.632-0.646,6.97-0.82c2.454-0.179,4.165-1.181,4.796-2.761
	c0.255-0.638,0.484-1.281,0.712-1.925v-7.637h2.441c0.024-0.076,0.047-0.153,0.072-0.229c-0.365-2.129-0.681-4.105-2.337-5.852
	c-1.461-1.541-2.666-3.272-4.396-4.629c-1.694-1.333-4.057-1.999-6.597-2.288c-1.664-0.185-3.316-0.442-4.964-0.726v1.767h-7.737
	v11.957h7.834v12.912C58.486,51.465,59.552,51.552,60.668,51.461z"/>
<path fill="#282933" d="M66.579,75.109c2.223,0.818,4.966,1.232,8.229,1.232c1.697,0,3.401-0.148,5.099-0.447
	c1.697-0.291,3.103-0.633,4.212-1.028l-0.194-11.755c0,0-1.315,0.467-2.207,0.589c-0.738,0.101-1.714,0.194-2.497,0.194
	c-2.287,0-3.869-0.572-4.756-1.719c-0.363-0.476-0.632-1.071-0.845-1.741c-0.778-0.158-1.581-0.294-2.408-0.407
	c-3.626-0.496-9.879,2.384-11.081,4.99c-0.287,0.618-0.882,1.211-1.561,1.719c0.596,1.842,1.472,3.46,2.671,4.834
	C62.578,73.111,64.354,74.292,66.579,75.109z"/>
<path fill="#282933" d="M36.332,72.377c-0.604-1.174-0.994-2.404-1.626-3.57c-0.518-0.955-1.484-1.572-2.993-1.476
	c-2.056,0.081-3.481,0.835-4.006,2.183c-0.947,2.394-0.197,4.586,1.598,6.584c0.127,0.144,0.308,0.283,0.509,0.415
	c1.239-0.146,2.493-0.312,3.72-0.659c2.247-0.635,3.841-1.29,3.841-1.29S36.835,73.347,36.332,72.377z"/>
<path fill="#282933" d="M99.44,98.686c3.068,0.013,5.732-0.361,7.984-1.082c2.251-0.721,4.211-1.776,5.881-3.183
	c1.663-1.407,3.103-3.104,4.309-5.099c0.045-0.075,0.088-0.157,0.133-0.232c-3.199,0.813-6.387,1.647-9.615,2.389
	c-3.715,0.852-7.447,1.754-11.444,1.371c-1.721-0.159-3.457-0.294-5.393-0.456l-0.681,5.21
	C90.614,97.604,94.417,98.665,99.44,98.686z"/>
<path fill="#282933" d="M159.909,60.856c-0.141,0.08-0.279,0.166-0.422,0.243c-4.035,2.209-8.255,4.238-12.25,6.488
	c-3.121,1.756-3.406,3.281-1.374,6.215c0.311,0.45,0.581,0.905,0.831,1.362h13.216V60.856z"/>
<path fill="#282933" d="M191.552,75.834c2.349-1.5,4.712-2.993,7.003-4.535c2.533-1.705,4.586-3.664,4.31-6.38
	c-0.125-1.354-0.462-2.752-1.144-3.998c-0.178-0.324-0.4-0.622-0.641-0.909l-1.146-0.725c-1.108,1.504-2.55,2.727-4.316,3.675
	c-1.76,0.95-3.914,1.424-6.463,1.424c-1.442,0-2.831-0.228-4.167-0.686c-1.337-0.457-2.55-1.099-3.623-1.916
	c-1.081-0.817-1.96-1.776-2.647-2.892c-0.685-1.108-1.098-2.349-1.229-3.721h16.445c-2.281-1.319-4.615-2.596-6.82-3.98
	c-2.284-1.443-4.938-1.957-7.884-2.282c-4.278,0.264-7.906,1.727-10.732,4.147c-1.946,1.67-3.394,3.65-5.245,5.393
	c-0.062,0.058-0.131,0.111-0.194,0.169c0.311,1.153,0.69,2.262,1.153,3.315c1.407,3.201,3.333,5.899,5.785,8.088
	c2.445,2.184,5.302,3.853,8.573,4.996c3.27,1.142,6.726,1.713,10.384,1.713c0.559,0,1.106-0.016,1.65-0.038
	C190.847,76.383,191.15,76.09,191.552,75.834z"/>
<path fill="#282933" d="M118.836,48.549c2.457,0.641,4.967,0.99,7.652,0.685c3.087-0.351,5.816-1.237,8.307-2.422l4.753-12.215
	c-0.646-0.694-1.359-1.354-2.098-1.992c-1.913-1.647-4.205-3.043-6.286-4.582c-0.683-0.506-1.18-1.073-1.526-1.661h-3.934
	L118.836,48.549z"/>
<path fill="#282933" d="M111.747,46.306l-6.917-19.945H93.745c-0.408,1.119-0.827,2.235-1.241,3.347
	c-0.44,1.207-1.143,2.381-1.382,3.601c-0.123,0.599-0.291,1.258-0.375,1.899l1.456,3.43c1.841,1.812,4.484,3.016,7.479,3.894
	C103.735,43.726,107.747,45.004,111.747,46.306z"/>
<path fill="#282933" d="M144.503,21.916c-0.659,2.711,3.19,7.373,6.673,8.283c1.171,0.296,2.283,1.045,3.076,1.796
	c0.995,0.952,1.57,2.132,2.428,3.15c0.668,0.813,1.295,1.835,2.316,2.266c0.301,0.126,0.605,0.249,0.913,0.366V9.756
	c-1.524,0.095-3.04,0.343-4.648,0.948C148.862,13.101,145.728,16.92,144.503,21.916z"/>
<path fill="#282933" d="M178.077,26.652c-3.201,1.248-5.979,2.989-8.327,5.248c-2.046,1.956-3.692,4.306-4.995,7.003
	c0.642,0.036,1.297,0.025,1.972-0.051c4.279-0.478,8.313-1.399,12.02-3.154c3.302-1.567,5.934-3.421,6.795-6.394
	c0.507-1.736,2.134-2.948,3.732-4.126c0.164-0.121,0.333-0.237,0.502-0.354c-0.432-0.018-0.867-0.028-1.308-0.028
	C184.742,24.796,181.277,25.413,178.077,26.652z"/>
<path fill="#282933" d="M238.564,31.926c3.963,1.846,8.134,3.255,12.82,3.748c1.97,0.209,3.826,0.599,5.479,1.312l4.843-5.608
	c-0.006-0.021-0.012-0.042-0.017-0.063c-0.969-0.961-2.116-1.847-3.442-2.654c-1.337-0.817-2.806-1.503-4.405-2.057
	c-1.601-0.554-3.271-0.994-5.002-1.327c-1.732-0.325-3.474-0.484-5.24-0.484c-3.368,0-6.559,0.477-9.575,1.434
	C234.499,28.547,236.043,30.758,238.564,31.926z"/>
<path fill="#282933" d="M114.905,77.811c2.734-0.285,5.412-0.578,7.923-1.619c0.199-0.083,0.414-0.146,0.62-0.22l4.665-11.989
	c-1.173-0.543-1.77-1.478-1.712-2.629c0.141-2.688-2.392-4.574-5.992-4.465c-3.943,0.131-6.673,1.463-8.422,4.483
	c-0.746,1.269-2.018,1.928-3.445,2.622c-1.571,0.786-3.14,1.633-4.46,2.635l3.291,7.754l-0.205,0.526
	c0.485,0.372,0.981,0.735,1.49,1.085C110.357,77.159,112.367,78.084,114.905,77.811z"/>
<path fill="#282933" d="M264.477,49.59c-1.978-1.578-3.813-1.688-5.605-1.357c-0.057,0.763-0.094,1.538-0.094,2.332
	c0,3.984,0.721,7.598,2.154,10.832c1.426,3.192,3.346,5.914,5.761,8.151C267.19,60.592,267.322,51.86,264.477,49.59z"/>
<path fill="#282933" d="M252.812,59.577c-0.982,1.178-2.269,2.075-3.875,2.698c-0.29,0.113-0.582,0.204-0.873,0.297
	c1.232,0.956,2.646,1.793,4.201,2.562c2.562,1.271,4.873,2.809,6.098,4.953c0.409,0.719,0.903,1.359,1.467,1.942
	c0.677-0.491,1.319-1.008,1.898-1.569L252.812,59.577z"/>
<path fill="#282933" d="M237.68,71.59c-0.053-1.148,0.008-2.393,0.539-3.456c0.596-1.188,0.719-2.325-0.291-3.216
	c-1.553-1.355-3.296-2.619-5.188-3.689c-1.39-0.783-3.158-1.18-4.244-1.569c-2.752,0.282-4.882,0.329-6.88,0.729
	c-1.152,0.235-2.3,0.492-3.44,0.766c0.066,0.162,0.128,0.328,0.198,0.488c1.419,3.199,3.352,5.926,5.82,8.176
	c2.461,2.26,5.369,3.975,8.707,5.145c0.659,0.232,1.336,0.423,2.014,0.609C237.136,74.922,237.763,73.402,237.68,71.59z"/>
<path fill="#282933" d="M224.544,49.675c2.772-1.648,2.749-2.069,0.397-4c-0.272-0.216-0.51-0.441-0.756-0.683
	c-2.387-2.326-4.736-2.601-7.166-0.967c-0.463,1.928-0.712,3.976-0.75,6.139c0.924,0.797,2.366,1.118,4.396,1.298
	C221.645,51.021,223.215,50.461,224.544,49.675z"/>
<polygon fill="#282933" points="198.167,45.175 198.167,45.175 198.167,45.176 "/>
<path fill="#282933" d="M198.167,45.175L198.167,45.175C198.167,45.175,198.167,45.175,198.167,45.175h-4.422
	c0.339,1.152,1.28,1.957,2.783,2.288c3.201,0.711,6.156,0.159,8.822-1.189c0.653-0.326,1.312-1.067,1.332-1.631
	c0.062-2.357-2.88-4.615-6.311-3.621c-0.908,0.266-1.844,0.475-2.774,0.694C197.974,42.784,198.167,43.936,198.167,45.175
	L198.167,45.175z"/>
<path fill="#282933" d="M287.373,74.402c-1.2-0.944-2.602-1.739-3.68-2.741c-1.176-1.099-2.029-2.386-3.098-3.542
	c-1.742-1.883-3.701-1.957-5.846-0.271c-0.861,0.673-1.298,3.056-1.497,6.106c0.692,0.326,1.398,0.637,2.133,0.913
	c3.306,1.24,6.779,1.863,10.438,1.863c1.535,0,3.029-0.111,4.486-0.322c-0.291-0.076-0.583-0.149-0.864-0.237
	C288.572,75.908,288.109,74.975,287.373,74.402z"/>
<path fill="#282933" d="M304.938,31.653c-2.48-2.224-5.355-3.921-8.625-5.099c-3.264-1.177-6.762-1.759-10.489-1.759
	c-3.659,0-7.134,0.581-10.438,1.759c-1.28,0.458-2.478,1.018-3.631,1.632c-0.178,0.159-0.353,0.318-0.532,0.478
	c-0.349,0.301-0.539,0.779-0.64,1.156c-1.248,4.676-1.375,7.79-0.062,8.983s4.117,3.446,5.748,3.758
	c0.163,0.03,0.318,0.068,0.479,0.1c0.161-0.227,0.323-0.454,0.501-0.668c0.949-1.142,2.137-2.074,3.578-2.795
	c1.433-0.72,3.104-1.081,4.995-1.081c1.897,0,3.561,0.361,5.002,1.081c1.434,0.721,2.647,1.653,3.624,2.795
	c0.982,1.143,1.73,2.463,2.258,3.966c0.52,1.503,0.783,3.041,0.783,4.605c0,1.566-0.245,3.104-0.738,4.607
	c-0.159,0.487-0.354,0.953-0.563,1.409c0.435,0.5,0.877,0.997,1.337,1.483c1.145,1.218,3.658,1.397,5.109,0.385
	c1.201-0.854,2.367-1.855,3.055-2.963c1.631-2.615,2.892-5.38,4.453-8.028c0.656-1.115,1.368-2.188,2.145-3.218
	c-0.354-1.559-0.839-3.047-1.469-4.454C309.377,36.587,307.416,33.87,304.938,31.653z"/>
<path fill="#282933" d="M326.555,33.892c0.762-0.281,1.447-0.584,2.068-0.905l-1.809-6.626h-17.347l5.208,15.081
	C317.687,38.328,321.519,35.755,326.555,33.892z"/>
<path fill="#282933" d="M342.491,75.166l8.346-26.956c-1.109-1.191-2.228-2.378-3.394-3.538c-2.299-2.271-4.298-2.519-8.04-1.13
	l-3.867,13.689h-0.298l-3.232-11.845c-0.785,0.102-1.577,0.182-2.376,0.242c-1.598,0.114-2.937,0.402-3.797,1.353
	c-2.263,2.462-4.474,4.957-6.669,7.458l7.158,20.728H342.491z"/>
<path fill="#282933" d="M372.443,68.586c-0.367-3.202-2.318-5.915-5.557-8.027c-2.229-1.459-4.889-2.535-7.221-3.92
	c-1.341-0.791-2.544-1.766-3.549-2.802c-0.59-0.604-1.164-1.214-1.738-1.825l7.322,23.154h6.94c0.25-0.229,0.492-0.461,0.747-0.686
	C371.305,72.77,371.997,70.78,372.443,68.586z"/>
<path fill="#282933" d="M388.577,26.361c-0.244,0.384-0.477,0.776-0.69,1.178c-2.253,4.274-4.712,8.483-7.172,12.676
	c-1.39,2.374-2.312,4.749-1.788,7.372c0.681,3.322,2.814,6.096,5.549,8.561l10.347-29.787H388.577z"/>
</svg>
