<?xml version="1.0" encoding="utf-8"?>
<!-- Generator: Adobe Illustrator 16.0.0, SVG Export Plug-In . SVG Version: 6.00 Build 0)  -->
<!DOCTYPE svg PUBLIC "-//W3C//DTD SVG 1.1//EN" "http://www.w3.org/Graphics/SVG/1.1/DTD/svg11.dtd">
<svg version="1.1" id="Layer_1" xmlns="http://www.w3.org/2000/svg" xmlns:xlink="http://www.w3.org/1999/xlink" x="0px" y="0px"
	 width="400px" height="100px" viewBox="0 0 400 100" enable-background="new 0 0 400 100" xml:space="preserve">
<g>
	<defs>
		<path id="SVGID_1_" d="M38.731,40.763c-1.311-1.239-2.848-2.285-4.607-3.131c-1.767-0.852-3.63-1.274-5.591-1.274
			c-1.504,0-2.885,0.291-4.16,0.879c-1.275,0.589-1.916,1.601-1.916,3.042c0,1.372,0.703,2.348,2.11,2.937
			c1.406,0.589,3.675,1.24,6.813,1.961c1.828,0.395,3.675,0.949,5.531,1.663c1.864,0.721,3.543,1.669,5.046,2.847
			c1.503,1.17,2.716,2.612,3.631,4.309c0.914,1.698,1.372,3.727,1.372,6.075c0,3.07-0.624,5.671-1.864,7.79
			c-1.24,2.127-2.858,3.842-4.853,5.144c-1.988,1.31-4.229,2.259-6.709,2.848c-2.488,0.589-4.968,0.879-7.447,0.879
			c-3.991,0-7.895-0.634-11.712-1.908c-3.824-1.275-7.007-3.155-9.556-5.636l9.013-9.504c1.44,1.565,3.199,2.875,5.292,3.914
			c2.092,1.047,4.316,1.573,6.665,1.573c1.309,0,2.601-0.308,3.876-0.932c1.267-0.624,1.908-1.715,1.908-3.28
			c0-1.503-0.783-2.618-2.355-3.332c-1.565-0.72-4.018-1.476-7.351-2.259c-1.697-0.387-3.395-0.914-5.091-1.565
			c-1.698-0.65-3.219-1.538-4.555-2.646c-1.345-1.108-2.436-2.479-3.288-4.115c-0.845-1.634-1.275-3.595-1.275-5.881
			c0-2.938,0.624-5.442,1.864-7.5c1.239-2.057,2.84-3.736,4.801-5.047c1.961-1.302,4.132-2.268,6.516-2.892
			c2.39-0.616,4.755-0.924,7.111-0.924c3.657,0,7.228,0.572,10.727,1.714c3.498,1.143,6.453,2.858,8.871,5.144L38.731,40.763z
			 M73.146,38.318v18.688c0,2.299,0.44,4.017,1.319,5.17c0.887,1.146,2.469,1.718,4.756,1.718c0.783,0,1.617-0.062,2.497-0.194
			c0.879-0.131,1.617-0.333,2.207-0.589l0.194,11.755c-1.109,0.396-2.515,0.738-4.212,1.029c-1.698,0.298-3.402,0.447-5.099,0.447
			c-3.263,0-6.006-0.414-8.229-1.232c-2.225-0.818-4.001-1.998-5.338-3.539c-1.344-1.541-2.304-3.372-2.892-5.502
			c-0.589-2.123-0.887-4.5-0.887-7.123V38.318h-7.834V26.361h7.737V13.524h15.782v12.837H84.61v11.957H73.146z M120.902,82.516
			c-0.984,2.549-2.075,4.817-3.288,6.806c-1.206,1.995-2.646,3.692-4.309,5.099c-1.67,1.406-3.63,2.462-5.881,3.183
			c-2.252,0.72-4.916,1.081-7.984,1.081c-1.504,0-3.06-0.097-4.659-0.298c-1.601-0.194-2.99-0.458-4.167-0.783l1.767-13.522
			c0.783,0.262,1.652,0.474,2.594,0.641c0.948,0.158,1.818,0.238,2.602,0.238c2.479,0,4.273-0.572,5.39-1.714
			c1.108-1.144,2.057-2.761,2.84-4.846l1.565-4.018l-20.38-48.022h17.838l10.876,31.361h0.291l9.706-31.361h17.049L120.902,82.516z
			 M143.546,75.166V1.075h16.363v74.09H143.546z M212.964,51.348c0,0.659,0,1.311,0,1.961c0,0.651-0.028,1.274-0.097,1.863h-35.379
			c0.131,1.372,0.544,2.612,1.229,3.72c0.687,1.116,1.566,2.075,2.647,2.892c1.073,0.818,2.286,1.459,3.623,1.916
			c1.336,0.458,2.725,0.686,4.167,0.686c2.549,0,4.704-0.474,6.463-1.424c1.767-0.948,3.208-2.171,4.316-3.675l11.167,7.06
			c-2.286,3.332-5.303,5.892-9.064,7.693c-3.755,1.794-8.116,2.691-13.083,2.691c-3.658,0-7.114-0.572-10.384-1.714
			c-3.271-1.143-6.128-2.812-8.573-4.995c-2.452-2.189-4.378-4.887-5.785-8.088c-1.407-3.2-2.109-6.858-2.109-10.973
			c0-3.99,0.686-7.597,2.065-10.832c1.372-3.235,3.228-5.978,5.583-8.229c2.348-2.259,5.126-4,8.327-5.248
			c3.2-1.239,6.665-1.856,10.392-1.856c3.587,0,6.893,0.599,9.9,1.812c2.999,1.206,5.583,2.955,7.737,5.24
			c2.155,2.287,3.841,5.064,5.047,8.334C212.365,43.445,212.964,47.172,212.964,51.348z M198.167,45.176c0-2.55-0.8-4.739-2.4-6.567
			c-1.601-1.829-4.001-2.744-7.201-2.744c-1.565,0-3.007,0.246-4.316,0.738c-1.302,0.484-2.445,1.161-3.429,2.005
			c-0.976,0.852-1.759,1.847-2.348,2.989c-0.589,1.143-0.915,2.339-0.984,3.578H198.167z M252.419,42.134
			c-0.915-1.17-2.154-2.119-3.72-2.84c-1.573-0.721-3.174-1.074-4.809-1.074c-1.698,0-3.228,0.343-4.6,1.029
			c-1.371,0.686-2.549,1.601-3.533,2.743c-0.977,1.144-1.742,2.463-2.303,3.966c-0.555,1.503-0.828,3.104-0.828,4.801
			c0,1.705,0.255,3.305,0.783,4.801c0.519,1.503,1.292,2.831,2.303,3.973c1.011,1.143,2.216,2.041,3.624,2.691
			c1.406,0.659,2.989,0.984,4.755,0.984c1.627,0,3.245-0.308,4.846-0.932c1.607-0.623,2.893-1.521,3.876-2.699l8.916,10.884
			c-2.023,1.96-4.643,3.492-7.843,4.607c-3.2,1.108-6.595,1.662-10.19,1.662c-3.853,0-7.451-0.588-10.796-1.767
			c-3.338-1.17-6.245-2.885-8.706-5.144c-2.47-2.251-4.402-4.977-5.821-8.177c-1.412-3.2-2.117-6.831-2.117-10.884
			c0-3.983,0.705-7.579,2.117-10.78c1.419-3.2,3.352-5.926,5.821-8.177c2.46-2.259,5.368-3.99,8.706-5.196
			c3.345-1.212,6.91-1.812,10.699-1.812c1.767,0,3.508,0.159,5.241,0.484c1.731,0.333,3.401,0.773,5.002,1.327
			c1.6,0.554,3.068,1.24,4.405,2.057c1.344,0.818,2.505,1.715,3.482,2.691L252.419,42.134z M312.973,50.565
			c0,3.984-0.721,7.596-2.154,10.832c-1.442,3.228-3.402,5.979-5.882,8.23c-2.48,2.251-5.355,4.001-8.625,5.24
			c-3.263,1.24-6.761,1.864-10.489,1.864c-3.658,0-7.132-0.624-10.437-1.864c-3.297-1.239-6.172-2.989-8.617-5.24
			c-2.453-2.251-4.396-5.002-5.837-8.23c-1.434-3.235-2.154-6.848-2.154-10.832c0-3.982,0.72-7.578,2.154-10.779
			c1.441-3.199,3.384-5.916,5.837-8.133c2.445-2.223,5.32-3.921,8.617-5.099c3.304-1.178,6.778-1.759,10.437-1.759
			c3.728,0,7.226,0.582,10.489,1.759c3.27,1.178,6.145,2.875,8.625,5.099c2.479,2.217,4.44,4.934,5.882,8.133
			C312.252,42.987,312.973,46.583,312.973,50.565z M297.49,50.565c0-1.565-0.264-3.103-0.783-4.606
			c-0.527-1.503-1.275-2.823-2.258-3.966c-0.977-1.142-2.19-2.074-3.624-2.795c-1.441-0.72-3.104-1.081-5.002-1.081
			c-1.892,0-3.562,0.361-4.995,1.081c-1.441,0.721-2.629,1.653-3.578,2.795c-0.949,1.144-1.663,2.463-2.154,3.966
			c-0.492,1.503-0.738,3.041-0.738,4.606s0.246,3.104,0.738,4.607c0.492,1.504,1.223,2.858,2.207,4.063
			c0.977,1.213,2.189,2.179,3.623,2.893c1.44,0.721,3.103,1.081,5.002,1.081c1.891,0,3.561-0.36,4.995-1.081
			c1.433-0.713,2.646-1.679,3.623-2.893c0.984-1.205,1.714-2.559,2.206-4.063C297.245,53.669,297.49,52.131,297.49,50.565z
			 M377.869,75.166h-16.168l-9.609-30.385h-0.193l-9.408,30.385h-16.169l-16.854-48.805h17.347l8.423,30.869h0.298l8.722-30.869
			h16.169l9.012,30.869h0.194l8.528-30.869h16.661L377.869,75.166z"/>
	</defs>
	<use xlink:href="#SVGID_1_"  overflow="visible" fill="#78799A"/>
	<clipPath id="SVGID_2_">
		<use xlink:href="#SVGID_1_"  overflow="visible"/>
	</clipPath>
	<path clip-path="url(#SVGID_2_)" fill-rule="evenodd" clip-rule="evenodd" fill="#999999" d="M-87.371,65.762
		c0,1.146,0,2.292,0,3.802c0.915-0.754,1.485-1.249,2.083-1.717c2.145-1.685,4.094-1.611,5.835,0.272
		c1.08,1.156,1.933,2.443,3.108,3.542c1.077,1.002,2.48,1.797,3.68,2.742c0.738,0.571,1.199,1.505,2.06,1.768
		c1.595,0.497,3.388,0.806,5.121,0.855c1.883,0.067,4.003-0.513,5.005,1.205c0.853,1.459,1.519,2.999,2.017,4.542
		c0.78,2.497,1.095,5.092,2.111,7.524c0.607,1.471,2.203,2.715,3.262,4.104c3.39,4.428,8.277,7.945,12.503,11.871
		c1.189,1.101,1.917,2.603,2.311,4c0.548,1.991,1.279,3.807,3.17,5.342c2.106,1.693,3.105,3.784,3.196,6.112
		c0.111,2.618-2.793,4.421-6.197,3.791c-0.223-0.038-0.479-0.01-0.66-0.086c-3.196-1.319-5.447-0.312-7.674,1.475
		c-1.486,1.203-3.429,2.077-5.219,3.061c-0.233,0.119-0.755,0.003-1.139-0.067c-2.839-0.524-5.681-1.097-8.538-1.572
		c-5.707-0.962-11.072-2.607-16.298-4.523c-1.293-0.47-2.407-1.224-3.662-1.788c-1.158-0.507-1.727-1.687-3.44-1.622
		c-0.181,0.003-0.602-0.953-0.627-1.46c-0.468-10.424-0.896-20.851-1.349-31.278c-0.294-6.964-0.622-13.927-0.934-20.89
		c-0.009-0.345,0-0.675,0-1.004C-87.544,65.762-87.458,65.762-87.371,65.762z"/>
	<path clip-path="url(#SVGID_2_)" fill-rule="evenodd" clip-rule="evenodd" fill="#999999" d="M-32.316,2.17
		c-0.259,1.745-0.46,3.244-0.713,4.727c-0.508,2.991,0.712,5.777,1.836,8.558c1.168,2.86,2.539,5.677,3.793,8.512
		c1.621,3.671,0.34,7.559-6.085,9.925c-7.994,2.957-12.958,7.701-16.41,13.566c-1.563,2.648-2.822,5.413-4.453,8.029
		c-0.688,1.107-1.854,2.109-3.055,2.962c-1.45,1.013-3.965,0.833-5.109-0.385c-1.622-1.716-3.077-3.532-4.438-5.367
		c-1.439-1.96-3.152-3.666-5.979-4.601c-0.392-0.135-0.74-0.404-0.984-0.683c-2.327-2.709-5.753-4.094-9.854-4.852
		c-1.63-0.312-3.087-1.134-4.747-1.758c-0.055,0.089-0.187,0.333-0.311,0.582c-0.056-0.066-0.143-0.112-0.146-0.176
		c-0.185-3.791-0.367-7.583-0.482-11.389c-0.018-0.39,0.292-0.855,0.638-1.156c3.248-2.879,6.308-5.746,7.266-9.661
		c0.749-3.083,4.459-3.927,7.651-1.908c1.712,1.074,3.346,2.225,4.877,3.442c1.124,0.914,2.169,1.767,4.001,1.235
		c1.175-0.348,2.279-2.005,1.829-3.306c-0.745-2.151-1.721-4.262-2.711-6.369c-0.854-1.816-1.851-3.596-2.86-5.538
		c-0.373,0.034-1.077,0.083-1.768,0.148C-58.138,4.327-45.497,3.179-32.316,2.17z"/>
	<path clip-path="url(#SVGID_2_)" fill-rule="evenodd" clip-rule="evenodd" fill="#282933" d="M12.405,68.586
		c-0.447,2.194-1.139,4.184-3.054,5.894c-2.359,2.084-4.477,4.328-6.784,6.46c-1.826,1.683-3.457,3.589-6.253,4.443
		c-1.662,0.519-3.54,0.768-5.343,0.856c-3.643,0.207-6.265-1.327-8.531-3.217c-2.074-1.715-4.069-3.474-6.072-5.243
		c-1.682-1.468-4.364-1.537-6.799-0.091c-2.739,1.608-5.367,3.328-8.194,4.836c-2.056,1.1-3.31,0.992-5.191-0.286
		c-0.772-0.515-1.251-1.358-1.653-2.111c-1.147-2.141-2.107-4.35-3.315-6.463c-0.516-0.897-1.649-1.6-2.244-2.474
		c-1.553-2.348-0.292-4.446,1.341-6.426c2.246-2.735,4.53-5.43,6.866-8.109c2.827-3.248,5.685-6.485,8.604-9.674
		c0.872-0.951,2.2-1.239,3.798-1.353c3.294-0.248,6.465-0.81,9.499-1.987c3.936-1.514,5.966-1.299,8.326,1.031
		c3.005,2.99,5.716,6.138,8.672,9.165c1.005,1.036,2.208,2.01,3.549,2.801c2.332,1.386,4.992,2.461,7.22,3.921
		C10.077,62.671,12.038,65.384,12.405,68.586z"/>
	<path clip-path="url(#SVGID_2_)" fill-rule="evenodd" clip-rule="evenodd" fill="#282933" d="M75.659,38.089
		c-1.053,3.262-1.94,6.575-3.225,9.791c-0.631,1.58-2.342,2.582-4.796,2.761c-2.338,0.174-4.632,0.636-6.97,0.82
		c-2.075,0.169-3.988-0.23-5.753-1.18c-2.328-1.248-5.405-0.894-7.633,0.787c-2.071,1.56-3.935,3.276-6.139,4.705
		c-2.281,1.473-4.762,2.82-7.79,3.403c-2.813,0.555-5.439-0.15-7.177-1.539c-3.546-2.828-6.465-6.044-7.287-10.05
		c-0.536-2.623,0.398-4.998,1.777-7.372c2.471-4.193,4.931-8.402,7.183-12.676c1.438-2.728,3.522-5.089,6.967-6.429
		c1.421-0.544,3.596-0.154,5.387,0.035c1.634,0.196,3.201,0.708,4.808,1.037c3.079,0.639,6.154,1.3,9.248,1.856
		c2.675,0.495,5.358,0.981,8.07,1.282c2.54,0.289,4.903,0.955,6.597,2.288c1.73,1.357,2.935,3.088,4.396,4.629
		C74.978,33.984,75.294,35.96,75.659,38.089z"/>
	<path clip-path="url(#SVGID_2_)" fill-rule="evenodd" clip-rule="evenodd" fill="#282933" d="M86.667,98.798
		c-2.277,0.294-4.396,0.645-6.551,0.853c-3.038,0.29-5.69-0.742-7.962-1.992c-2.033-1.117-3.511-2.812-5.315-4.177
		c-1.574-1.188-3.197-2.417-5.509-2.786c-3.99-0.646-6.458-2.612-8.558-5.076c-2.35-2.775-3.576-5.787-4.229-8.991
		c-0.433-2.134,0.604-4.028,1.939-5.778c0.577-0.757,1.937-1.223,3.02-1.725c1.375-0.644,2.952-1.073,4.223-1.819
		c1.002-0.596,2.003-1.421,2.406-2.29c1.202-2.606,7.455-5.486,11.081-4.99c6.693,0.919,11.803,3.251,15.008,8.037
		c1.366,2.032,1.393,3.878,1.315,5.886c-0.268,7.641-0.578,15.282-0.866,22.923C86.644,97.453,86.667,98.048,86.667,98.798z"/>
	<path clip-path="url(#SVGID_2_)" fill-rule="evenodd" clip-rule="evenodd" fill="#282933" d="M35.955,131.536
		c1.224-1.031,2.134-2.024,3.316-2.765c2.672-1.648,3.764-3.856,4.217-6.264c0.656-3.503,2.55-6.631,5.007-9.592
		c2.509-3.011,8.58-4.151,13.096-3.151c2.159,0.471,4.361,0.829,6.56,1.175c0.493,0.075,1.105-0.093,1.619-0.234
		c3.555-0.974,7.143-0.903,10.682-0.003c1.281,0.324,2.507,0.854,3.631,1.423c2.424,1.211,1.823,3.175,1.851,4.898
		c0.018,0.604-0.682,1.316-1.291,1.811c-2.958,2.358-6.415,4.155-10.382,5.511c-11.955,4.09-24.545,6.233-37.539,7.241
		C36.557,131.608,36.388,131.557,35.955,131.536z"/>
	<path clip-path="url(#SVGID_2_)" fill-rule="evenodd" clip-rule="evenodd" fill="#282933" d="M15.092,24.632
		c0.146,2.688-2.371,4.577-5.971,4.473c-2.213-0.066-3.874,0.878-4.162,2.684c-0.334,2.062-1.768,3.629-3.421,5.131
		c-2.565,2.327-7.756,1.715-8.994-1.144c-0.733-1.669-0.851-3.469-1.417-5.183c-0.465-1.422-0.918-2.912-1.858-4.165
		c-1.397-1.868-1.794-3.867-2.172-5.906c-0.351-1.894,0.882-3.413,2.428-4.672c1.771-1.438,3.787-2.755,5.903-3.921
		c2.194-1.188,4.546-1.014,6.532,0.418c1.381,1.002,2.552,2.208,3.629,3.422c0.942,1.056,1.802,2.007,3.516,2.571
		C13.133,19.642,14.927,21.677,15.092,24.632z"/>
	<path clip-path="url(#SVGID_2_)" fill-rule="evenodd" clip-rule="evenodd" fill="#282933" d="M-19.067,133.413
		c2.825,0,5.65,0.036,8.474-0.034c0.509-0.007,1.258-0.365,1.438-0.697c1.28-2.357,3.441-3.962,6.59-4.964
		c2.876-0.92,4.933-2.643,6.619-4.56c2.286-2.579,4.989-4.68,9.023-5.813c1.936-0.539,3.562-1.69,5.324-2.58
		c0.23-0.112,0.399-0.294,0.626-0.427c3.309-1.826,5.623-1.216,5.949,1.787c0.274,2.424-0.068,4.885-0.095,7.324
		c-0.029,2.946-0.003,5.88-0.003,8.84c0.92,0.082,1.406,0.125,1.871,0.18C11.533,134.043-3.765,133.655-19.067,133.413z"/>
	<path clip-path="url(#SVGID_2_)" fill-rule="evenodd" clip-rule="evenodd" fill="#282933" d="M11.392,105.402
		c-0.517,0.802-1.055,2.122-2.093,3.157c-1.431,1.422-3.136,2.733-4.944,3.882c-1.193,0.756-2.708,0.655-4.308,0.218
		c-1.419-0.394-3.078-0.437-4.619-0.398c-2.588,0.068-4.74-0.458-5.505-2.389c-0.408-1.043-0.37-2.365,0.11-3.398
		c0.837-1.818,2.173-3.5,3.305-5.245c0.514-0.791,1.037-1.58,1.525-2.389c1.48-2.424,4.168-4.076,6.782-5.715
		c2.062-1.294,4.145-2.145,5.829,0.723c1.205,2.063,2.145,4.236,2.936,6.412C10.953,101.742,11.019,103.337,11.392,105.402z"/>
	<path clip-path="url(#SVGID_2_)" fill-rule="evenodd" clip-rule="evenodd" fill="#282933" d="M-17.929,98.405
		c-0.397,1.868-0.66,3.408-1.058,4.935c-0.387,1.461-1.997,2.252-3.51,2.898c-2.283,0.987-4.754,1.958-7.409,0.554
		c-0.581-0.316-1.146-0.695-1.584-1.103c-1.393-1.318-2.555-2.807-4.112-3.987c-2.017-1.509-2.129-3.176-0.986-4.836
		c1.314-1.926,2.428-4.001,5.011-5.311c2.896-1.468,5.943-2.601,9.514-1.706c0.912,0.235,1.974,0.996,2.221,1.67
		C-19.008,93.869-18.497,96.273-17.929,98.405z"/>
	<path clip-path="url(#SVGID_2_)" fill-rule="evenodd" clip-rule="evenodd" fill="#282933" d="M22.351,99.547
		c0.312-1.892,0.885-3.126,2.671-3.742c1.955-0.682,3.833-1.185,5.944,0.073c3.593,2.149,3.708,4.21,0.052,6.292
		c-0.314,0.193-0.627,0.374-0.916,0.565c-2.59,1.756-3.142,1.779-5.357-0.293C23.691,101.45,22.95,100.274,22.351,99.547z"/>
	<path clip-path="url(#SVGID_2_)" fill-rule="evenodd" clip-rule="evenodd" fill="#282933" d="M31.713,79.331
		c1.509-0.096,2.475,0.521,2.993,1.475c0.632,1.167,1.022,2.397,1.626,3.571c1.333,2.569-1.694,4.76-4.854,4.717
		c-0.747-0.007-1.737-0.503-2.173-0.996c-1.795-1.998-2.545-4.191-1.598-6.584C28.232,80.166,29.657,79.412,31.713,79.331z"/>
	<path clip-path="url(#SVGID_2_)" fill-rule="evenodd" clip-rule="evenodd" fill="#282933" d="M175.44,133.466
		c1.539,0,3.077,0,5.106,0c-1.008-0.696-1.665-1.123-2.294-1.561c-2.257-1.606-2.162-3.068,0.349-4.363
		c1.562-0.812,3.282-1.45,4.745-2.321c1.341-0.81,2.417-1.855,3.67-2.75c0.755-0.558,2.011-0.895,2.375-1.54
		c0.662-1.199,1.063-2.531,1.143-3.82c0.086-1.416-0.691-2.997,1.603-3.747c1.957-0.639,4.016-1.14,6.094-1.501
		c3.337-0.594,6.797-0.822,10.054-1.588c1.973-0.447,3.631-1.647,5.486-2.437c5.93-2.531,10.646-6.181,15.898-9.349
		c1.473-0.873,3.479-1.432,5.358-1.722c2.657-0.418,5.081-0.957,7.136-2.365c2.28-1.57,5.07-2.318,8.187-2.39
		c3.512-0.077,5.911,2.079,5.079,4.637c-0.054,0.154-0.025,0.341-0.133,0.483c-1.755,2.39-0.406,4.069,1.988,5.738
		c1.6,1.111,2.777,2.566,4.084,3.897c0.171,0.177,0.005,0.57-0.084,0.851c-0.69,2.121-1.458,4.248-2.108,6.385
		c-1.285,4.259-3.485,8.264-6.034,12.178c-0.643,0.97-1.649,1.797-2.396,2.73c-0.684,0.859-2.271,1.285-2.188,2.567
		c0.016,0.142-1.262,0.456-1.947,0.467c-13.953,0.356-27.907,0.676-41.861,1.02c-9.313,0.221-18.637,0.464-27.95,0.688
		c-0.453,0.006-0.904,0.001-1.344,0.001C175.442,133.588,175.44,133.521,175.44,133.466z"/>
	<path clip-path="url(#SVGID_2_)" fill-rule="evenodd" clip-rule="evenodd" fill="#282933" d="M90.353,92.314
		c2.335,0.202,4.336,0.351,6.335,0.535c3.997,0.383,7.729-0.519,11.444-1.37c3.828-0.879,7.595-1.894,11.397-2.842
		c4.908-1.197,10.105-0.236,13.288,4.558c3.946,5.971,10.289,9.682,18.153,12.257c3.543,1.17,7.227,2.107,10.736,3.325
		c1.482,0.524,2.825,1.388,3.964,2.284c1.366,1.093,1.12,2.963-0.511,3.82c-2.292,1.21-4.73,2.305-7.19,3.313
		c-2.625,1.077-4.903,2.36-6.16,4.47c-0.172,0.302-0.545,0.561-0.915,0.738c-3.622,1.746-5.461,4.298-6.485,7.362
		c-0.405,1.218-1.512,2.314-2.364,3.559c0.138,0.038,0.456,0.124,0.794,0.225c-0.085,0.039-0.162,0.107-0.231,0.109
		c-5.079,0.136-10.159,0.277-15.24,0.359c-0.518,0.004-1.142-0.218-1.562-0.474c-3.847-2.427-7.684-4.714-12.91-5.427
		c-4.137-0.566-5.265-3.343-2.568-5.717c1.437-1.28,2.981-2.5,4.623-3.642c1.206-0.85,2.346-1.63,1.634-2.995
		c-0.457-0.884-2.685-1.706-4.416-1.363c-2.885,0.549-5.713,1.288-8.533,2.016c-2.427,0.637-4.8,1.385-7.405,2.14
		c0.036,0.283,0.118,0.81,0.201,1.321C93.243,111.618,91.704,102.166,90.353,92.314z"/>
	<path clip-path="url(#SVGID_2_)" fill-rule="evenodd" clip-rule="evenodd" fill="#282933" d="M179.229,58.909
		c2.946,0.326,5.6,0.839,7.884,2.283c2.798,1.756,5.808,3.335,8.646,5.054c2.255,1.374,4.821,2.593,5.962,4.675
		c0.682,1.246,1.018,2.644,1.143,3.998c0.276,2.716-1.776,4.675-4.309,6.38c-2.291,1.542-4.654,3.035-7.003,4.535
		c-1.969,1.251-2.056,3.255-0.14,5.077c2.148,2.043,4.458,4.007,6.482,6.118c1.463,1.55,1.318,2.483-0.378,3.884
		c-0.706,0.574-1.821,0.931-2.825,1.24c-2.871,0.859-5.818,1.571-8.66,2.473c-1.203,0.389-2.126,1.223-3.315,1.674
		c-3.137,1.172-5.938,0.219-8.597-1c-3.649-1.675-7.271-3.386-10.852-5.132c-4.352-2.11-8.67-4.25-12.949-6.432
		c-1.261-0.645-1.652-1.645-1.804-2.832c-0.334-2.458-1.077-4.822-2.651-7.101c-2.032-2.934-1.747-4.459,1.374-6.215
		c3.995-2.25,8.215-4.279,12.25-6.488c1.391-0.752,2.704-1.649,3.765-2.651c1.851-1.742,3.299-3.722,5.245-5.393
		C171.323,60.636,174.951,59.173,179.229,58.909z"/>
	<path clip-path="url(#SVGID_2_)" fill-rule="evenodd" clip-rule="evenodd" fill="#282933" d="M113.781,6.812
		c4.373,0.786,8.797,1.441,13.104,2.403c2.12,0.469,3.46,1.75,3.708,3.593c0.229,1.748,0.838,3.465,1.092,5.212
		c0.222,1.542-0.318,2.972-1.576,4.29c-1.674,1.749-1.197,4.042,1.054,5.712c2.081,1.539,4.373,2.935,6.286,4.582
		c1.975,1.707,3.77,3.562,4.563,5.82c0.723,2.101-0.204,4.062-2.059,5.356c-3.792,2.649-8.1,4.844-13.465,5.454
		c-3.489,0.396-6.684-0.306-9.848-1.328c-5.625-1.847-11.251-3.693-16.959-5.374c-3.67-1.076-6.835-2.625-8.61-5.21
		c-0.737-1.05-0.222-2.684,0.051-4.013c0.239-1.22,0.942-2.394,1.382-3.601c0.853-2.293,1.729-4.6,2.482-6.918
		c0.658-1.982,1.303-3.999,1.711-6.016c0.393-1.896,1.276-3.667,3.071-4.929c1.81-1.288,4.116-2.2,6.178-3.287
		C108.283,7.317,110.938,7.074,113.781,6.812z"/>
	<path clip-path="url(#SVGID_2_)" fill-rule="evenodd" clip-rule="evenodd" fill="#282933" d="M196.383,10.362
		c0.402,1.705,0.863,3.286,1.14,4.891c0.395,2.28-0.991,4.269-2.657,5.955c-1.508,1.527-3.76,2.617-5.592,3.97
		c-1.598,1.178-3.225,2.39-3.732,4.126c-0.861,2.973-3.493,4.827-6.795,6.394c-3.707,1.755-7.741,2.676-12.02,3.154
		c-2.852,0.323-5.391-0.459-7.731-1.441c-1.021-0.431-1.648-1.453-2.316-2.266c-0.858-1.018-1.433-2.198-2.428-3.15
		c-0.793-0.751-1.905-1.5-3.076-1.796c-3.483-0.91-7.332-5.572-6.673-8.283c1.225-4.996,4.359-8.815,10.758-11.212
		c2.726-1.026,5.184-1.037,7.874-0.99c10.222,0.21,20.455,0.433,30.676,0.648C194.589,10.386,195.381,10.362,196.383,10.362z"/>
	<path clip-path="url(#SVGID_2_)" fill-rule="evenodd" clip-rule="evenodd" fill="#282933" d="M263.474,41.307
		c-1.386-0.918-2.705-1.597-3.684-2.487c-2.217-1.981-5.162-2.802-8.405-3.146c-4.687-0.493-8.858-1.902-12.821-3.748
		c-4.031-1.867-5.563-6.402-4.223-9.784c0.632-1.608,1.113-3.253,1.568-4.897c0.108-0.366-0.113-0.822-0.306-1.208
		c-1.311-2.656-1.208-5.333-0.003-7.977c0.444-0.96,1.14-1.88,1.903-2.716c1.611-1.815,4.237-1.373,6.562-1.385
		c0.805-0.006,1.753,0.503,2.41,0.965c3.161,2.208,5.569,4.789,7.386,7.752c5.457,8.931,8.331,18.347,9.681,28.06
		C263.564,40.852,263.513,40.983,263.474,41.307z"/>
	<path clip-path="url(#SVGID_2_)" fill-rule="evenodd" clip-rule="evenodd" fill="#282933" d="M120.409,56.889
		c3.6-0.11,6.133,1.777,5.992,4.464c-0.083,1.66,1.166,2.891,3.596,3.107c2.748,0.248,4.851,1.319,6.856,2.56
		c3.127,1.921,2.301,5.79-1.523,6.72c-2.228,0.541-4.65,0.638-6.939,1.062c-1.903,0.353-3.882,0.684-5.563,1.39
		c-2.511,1.041-5.189,1.333-7.923,1.619c-2.538,0.273-4.548-0.652-6.248-1.817c-1.925-1.321-3.689-2.824-5.235-4.402
		c-1.598-1.639-1.368-3.398,0.549-4.885c1.342-1.037,2.958-1.905,4.571-2.713c1.427-0.694,2.699-1.354,3.445-2.622
		C113.736,58.352,116.466,57.019,120.409,56.889z"/>
	<path clip-path="url(#SVGID_2_)" fill-rule="evenodd" clip-rule="evenodd" fill="#282933" d="M265.993,82.416
		c0-2.108,0.052-4.218-0.038-6.328c-0.02-0.382-0.502-0.949-0.956-1.074c-3.149-0.959-5.294-2.569-6.636-4.926
		c-1.225-2.145-3.536-3.683-6.098-4.953c-3.458-1.711-6.26-3.721-7.771-6.746c-0.73-1.438-2.275-2.653-3.456-3.969
		c-0.162-0.174-0.412-0.293-0.571-0.465c-2.45-2.469-1.628-4.207,2.383-4.456c3.247-0.191,6.534,0.063,9.809,0.088
		c3.933,0.014,7.855,0.003,11.818,0.003c0.116-0.701,0.179-1.062,0.236-1.415C266.825,59.554,266.311,70.983,265.993,82.416z"/>
	<path clip-path="url(#SVGID_2_)" fill-rule="evenodd" clip-rule="evenodd" fill="#282933" d="M228.495,59.659
		c1.086,0.39,2.854,0.787,4.244,1.57c1.893,1.07,3.636,2.333,5.189,3.689c1.01,0.891,0.887,2.028,0.291,3.216
		c-0.531,1.063-0.592,2.307-0.539,3.456c0.087,1.93-0.604,3.541-3.195,4.109c-1.401,0.314-3.169,0.281-4.547-0.076
		c-2.439-0.635-4.694-1.633-7.016-2.467c-1.061-0.387-2.118-0.781-3.196-1.144c-3.245-1.106-5.453-3.126-7.649-5.066
		c-1.739-1.541-2.876-3.102,0.973-4.359c2.761-0.912,5.655-1.604,8.565-2.199C223.613,59.988,225.743,59.942,228.495,59.659z"/>
	<path clip-path="url(#SVGID_2_)" fill-rule="evenodd" clip-rule="evenodd" fill="#282933" d="M219.134,81.564
		c2.51,0.306,4.58,0.496,6.614,0.803c1.948,0.271,3.019,1.482,3.883,2.617c1.31,1.709,2.619,3.542,0.72,5.532
		c-0.411,0.434-0.912,0.859-1.465,1.186c-1.765,1.039-3.742,1.913-5.329,3.072c-2.027,1.503-4.25,1.594-6.483,0.739
		c-2.573-0.988-5.359-1.817-7.101-3.742c-1.956-2.174-3.467-4.439-2.268-7.111c0.296-0.68,1.324-1.472,2.228-1.665
		C213.07,82.374,216.295,81.99,219.134,81.564z"/>
	<path clip-path="url(#SVGID_2_)" fill-rule="evenodd" clip-rule="evenodd" fill="#282933" d="M220.665,51.462
		c-2.534-0.226-4.168-0.655-4.998-1.981c-0.926-1.48-1.594-2.877,0.094-4.452c2.881-2.681,5.628-2.762,8.424-0.037
		c0.247,0.242,0.484,0.467,0.757,0.683c2.351,1.931,2.374,2.352-0.398,4C223.215,50.461,221.645,51.021,220.665,51.462z"/>
	<path clip-path="url(#SVGID_2_)" fill-rule="evenodd" clip-rule="evenodd" fill="#282933" d="M193.607,44.464
		c-0.116-1.119,0.716-1.837,1.978-2.226c1.559-0.471,3.216-0.757,4.786-1.216c3.431-0.994,6.373,1.264,6.311,3.621
		c-0.021,0.564-0.679,1.305-1.333,1.631c-2.666,1.348-5.621,1.9-8.821,1.189C194.731,47.067,193.725,46.001,193.607,44.464z"/>
	<path clip-path="url(#SVGID_2_)" fill-rule="evenodd" clip-rule="evenodd" fill="#282933" d="M272.667,65.762
		c0,1.146,0,2.292,0,3.802c0.916-0.754,1.485-1.249,2.083-1.717c2.144-1.685,4.104-1.611,5.846,0.272
		c1.068,1.156,1.922,2.443,3.097,3.542c1.078,1.002,2.48,1.797,3.68,2.742c0.737,0.571,1.199,1.505,2.072,1.768
		c1.595,0.497,3.376,0.806,5.11,0.855c1.883,0.067,4.003-0.513,5.004,1.205c0.854,1.459,1.53,2.999,2.018,4.542
		c0.78,2.497,1.095,5.092,2.111,7.524c0.606,1.471,2.203,2.715,3.262,4.104c3.389,4.428,8.276,7.945,12.503,11.871
		c1.189,1.101,1.929,2.603,2.311,4c0.56,1.991,1.279,3.807,3.171,5.342c2.106,1.693,3.104,3.784,3.196,6.112
		c0.11,2.618-2.782,4.421-6.198,3.791c-0.211-0.038-0.467-0.01-0.66-0.086c-3.196-1.319-5.447-0.312-7.674,1.475
		c-1.486,1.203-3.429,2.077-5.219,3.061c-0.233,0.119-0.754,0.003-1.127-0.067c-2.849-0.524-5.68-1.097-8.548-1.572
		c-5.696-0.962-11.061-2.607-16.297-4.523c-1.294-0.47-2.408-1.224-3.663-1.788c-1.146-0.507-1.714-1.687-3.429-1.622
		c-0.191,0.003-0.612-0.953-0.626-1.46c-0.479-10.424-0.907-20.851-1.359-31.278c-0.294-6.964-0.612-13.927-0.923-20.89
		c-0.02-0.345-0.001-0.675-0.001-1.004C272.494,65.762,272.581,65.762,272.667,65.762z"/>
	<path clip-path="url(#SVGID_2_)" fill-rule="evenodd" clip-rule="evenodd" fill="#282933" d="M327.723,2.17
		c-0.259,1.745-0.46,3.244-0.713,4.727c-0.508,2.991,0.712,5.777,1.847,8.558c1.157,2.86,2.527,5.677,3.782,8.512
		c1.621,3.671,0.339,7.559-6.085,9.925c-7.994,2.957-12.958,7.701-16.411,13.566c-1.562,2.648-2.822,5.413-4.453,8.029
		c-0.688,1.107-1.854,2.109-3.055,2.962c-1.451,1.013-3.965,0.833-5.109-0.385c-1.621-1.716-3.077-3.532-4.427-5.367
		c-1.45-1.96-3.163-3.666-5.99-4.601c-0.393-0.135-0.74-0.404-0.974-0.683c-2.338-2.709-5.764-4.094-9.866-4.852
		c-1.63-0.312-3.088-1.134-4.747-1.758c-0.054,0.089-0.187,0.333-0.311,0.582c-0.056-0.066-0.144-0.112-0.146-0.176
		c-0.174-3.791-0.366-7.583-0.482-11.389c-0.019-0.39,0.291-0.855,0.639-1.156c3.248-2.879,6.318-5.746,7.266-9.661
		c0.748-3.083,4.459-3.927,7.651-1.908c1.712,1.074,3.345,2.225,4.877,3.442c1.124,0.914,2.169,1.767,4.001,1.235
		c1.175-0.348,2.278-2.005,1.829-3.306c-0.746-2.151-1.721-4.262-2.712-6.369c-0.853-1.816-1.851-3.596-2.859-5.538
		c-0.374,0.034-1.077,0.083-1.769,0.148C301.9,4.327,314.541,3.179,327.723,2.17z"/>
	<path clip-path="url(#SVGID_2_)" fill-rule="evenodd" clip-rule="evenodd" fill="#282933" d="M372.443,68.586
		c-0.446,2.194-1.139,4.184-3.054,5.894c-2.359,2.084-4.477,4.328-6.784,6.46c-1.826,1.683-3.457,3.589-6.252,4.443
		c-1.662,0.519-3.54,0.768-5.343,0.856c-3.644,0.207-6.254-1.327-8.531-3.217c-2.063-1.715-4.058-3.474-6.072-5.243
		c-1.67-1.468-4.353-1.537-6.798-0.091c-2.74,1.608-5.367,3.328-8.194,4.836c-2.057,1.1-3.31,0.992-5.191-0.286
		c-0.772-0.515-1.252-1.358-1.654-2.111c-1.146-2.141-2.107-4.35-3.315-6.463c-0.515-0.897-1.649-1.6-2.232-2.474
		c-1.564-2.348-0.304-4.446,1.34-6.426c2.235-2.735,4.52-5.43,6.855-8.109c2.827-3.248,5.684-6.485,8.615-9.674
		c0.861-0.951,2.199-1.239,3.797-1.353c3.284-0.248,6.455-0.81,9.488-1.987c3.936-1.514,5.966-1.299,8.326,1.031
		c3.005,2.99,5.717,6.138,8.673,9.165c1.005,1.036,2.208,2.01,3.549,2.801c2.332,1.386,4.991,2.461,7.22,3.921
		C370.125,62.671,372.076,65.384,372.443,68.586z"/>
	<path clip-path="url(#SVGID_2_)" fill-rule="evenodd" clip-rule="evenodd" fill="#282933" d="M435.697,38.089
		c-1.042,3.262-1.94,6.575-3.224,9.791c-0.631,1.58-2.342,2.582-4.797,2.761c-2.338,0.174-4.631,0.636-6.97,0.82
		c-2.075,0.169-3.988-0.23-5.742-1.18c-2.339-1.248-5.417-0.894-7.644,0.787c-2.061,1.56-3.936,3.276-6.139,4.705
		c-2.28,1.473-4.763,2.82-7.79,3.403c-2.814,0.555-5.428-0.15-7.167-1.539c-3.557-2.828-6.476-6.044-7.297-10.05
		c-0.525-2.623,0.398-4.998,1.788-7.372c2.46-4.193,4.919-8.402,7.172-12.676c1.448-2.728,3.533-5.089,6.967-6.429
		c1.421-0.544,3.597-0.154,5.387,0.035c1.634,0.196,3.201,0.708,4.819,1.037c3.068,0.639,6.144,1.3,9.249,1.856
		c2.663,0.495,5.347,0.981,8.059,1.282c2.539,0.289,4.903,0.955,6.608,2.288c1.719,1.357,2.924,3.088,4.396,4.629
		C435.027,33.984,435.343,35.96,435.697,38.089z"/>
	<path clip-path="url(#SVGID_2_)" fill-rule="evenodd" clip-rule="evenodd" fill="#282933" d="M446.706,98.798
		c-2.277,0.294-4.396,0.645-6.54,0.853c-3.05,0.29-5.702-0.742-7.963-1.992c-2.043-1.117-3.511-2.812-5.325-4.177
		c-1.574-1.188-3.197-2.417-5.51-2.786c-3.979-0.646-6.458-2.612-8.559-5.076c-2.35-2.775-3.576-5.787-4.229-8.991
		c-0.433-2.134,0.604-4.028,1.939-5.778c0.577-0.757,1.938-1.223,3.02-1.725c1.375-0.644,2.952-1.073,4.223-1.819
		c1.003-0.596,2.003-1.421,2.407-2.29c1.202-2.606,7.466-5.486,11.091-4.99c6.682,0.919,11.792,3.251,14.998,8.037
		c1.366,2.032,1.393,3.878,1.325,5.886c-0.279,7.641-0.588,15.282-0.876,22.923C446.682,97.453,446.706,98.048,446.706,98.798z"/>
	<path clip-path="url(#SVGID_2_)" fill-rule="evenodd" clip-rule="evenodd" fill="#282933" d="M395.993,131.536
		c1.224-1.031,2.134-2.024,3.316-2.765c2.672-1.648,3.764-3.856,4.217-6.264c0.655-3.503,2.561-6.631,5.017-9.592
		c2.51-3.011,8.57-4.151,13.085-3.151c2.159,0.471,4.362,0.829,6.56,1.175c0.504,0.075,1.105-0.093,1.619-0.234
		c3.566-0.974,7.144-0.903,10.682-0.003c1.281,0.324,2.507,0.854,3.641,1.423c2.425,1.211,1.812,3.175,1.841,4.898
		c0.018,0.604-0.67,1.316-1.291,1.811c-2.947,2.358-6.416,4.155-10.382,5.511c-11.944,4.09-24.545,6.233-37.539,7.241
		C396.595,131.608,396.426,131.557,395.993,131.536z"/>
	<path clip-path="url(#SVGID_2_)" fill-rule="evenodd" clip-rule="evenodd" fill="#282933" d="M375.131,24.632
		c0.146,2.688-2.371,4.577-5.971,4.473c-2.202-0.066-3.873,0.878-4.161,2.684c-0.335,2.062-1.768,3.629-3.421,5.131
		c-2.565,2.327-7.745,1.715-8.995-1.144c-0.722-1.669-0.851-3.469-1.407-5.183c-0.476-1.422-0.929-2.912-1.869-4.165
		c-1.398-1.868-1.783-3.867-2.173-5.906c-0.351-1.894,0.883-3.413,2.428-4.672c1.77-1.438,3.787-2.755,5.903-3.921
		c2.193-1.188,4.545-1.014,6.532,0.418c1.393,1.002,2.563,2.208,3.628,3.422c0.942,1.056,1.803,2.007,3.516,2.571
		C373.182,19.642,374.965,21.677,375.131,24.632z"/>
	<path clip-path="url(#SVGID_2_)" fill-rule="evenodd" clip-rule="evenodd" fill="#282933" d="M340.971,133.413
		c2.825,0,5.65,0.036,8.474-0.034c0.508-0.007,1.257-0.365,1.447-0.697c1.271-2.357,3.432-3.962,6.591-4.964
		c2.866-0.92,4.922-2.643,6.609-4.56c2.296-2.579,4.988-4.68,9.033-5.813c1.925-0.539,3.552-1.69,5.313-2.58
		c0.23-0.112,0.399-0.294,0.626-0.427c3.309-1.826,5.623-1.216,5.959,1.787c0.264,2.424-0.079,4.885-0.105,7.324
		c-0.029,2.946-0.003,5.88-0.003,8.84c0.92,0.082,1.406,0.125,1.882,0.18C371.583,134.043,356.284,133.655,340.971,133.413z"/>
	<path clip-path="url(#SVGID_2_)" fill-rule="evenodd" clip-rule="evenodd" fill="#282933" d="M371.44,105.402
		c-0.516,0.802-1.055,2.122-2.104,3.157c-1.431,1.422-3.135,2.733-4.943,3.882c-1.193,0.756-2.708,0.655-4.309,0.218
		c-1.419-0.394-3.078-0.437-4.619-0.398c-2.577,0.068-4.74-0.458-5.505-2.389c-0.408-1.043-0.37-2.365,0.111-3.398
		c0.848-1.818,2.173-3.5,3.305-5.245c0.514-0.791,1.036-1.58,1.524-2.389c1.481-2.424,4.168-4.076,6.783-5.715
		c2.062-1.294,4.145-2.145,5.829,0.723c1.216,2.063,2.157,4.236,2.937,6.412C370.99,101.742,371.056,103.337,371.44,105.402z"/>
	<path clip-path="url(#SVGID_2_)" fill-rule="evenodd" clip-rule="evenodd" fill="#282933" d="M342.108,98.405
		c-0.396,1.868-0.659,3.408-1.057,4.935c-0.377,1.461-1.998,2.252-3.51,2.898c-2.284,0.987-4.744,1.958-7.398,0.554
		c-0.591-0.316-1.157-0.695-1.595-1.103c-1.394-1.318-2.544-2.807-4.111-3.987c-2.018-1.509-2.129-3.176-0.986-4.836
		c1.313-1.926,2.438-4.001,5.01-5.311c2.896-1.468,5.944-2.601,9.515-1.706c0.912,0.235,1.985,0.996,2.221,1.67
		C341.031,93.869,341.541,96.273,342.108,98.405z"/>
	<path clip-path="url(#SVGID_2_)" fill-rule="evenodd" clip-rule="evenodd" fill="#282933" d="M382.399,99.547
		c0.301-1.892,0.886-3.126,2.66-3.742c1.966-0.682,3.834-1.185,5.945,0.073c3.593,2.149,3.708,4.21,0.052,6.292
		c-0.314,0.193-0.627,0.374-0.916,0.565c-2.59,1.756-3.142,1.779-5.358-0.293C383.741,101.45,382.999,100.274,382.399,99.547z"/>
	<path clip-path="url(#SVGID_2_)" fill-rule="evenodd" clip-rule="evenodd" fill="#282933" d="M391.762,79.331
		c1.499-0.096,2.465,0.521,2.981,1.475c0.644,1.167,1.022,2.397,1.627,3.571c1.333,2.569-1.694,4.76-4.854,4.717
		c-0.746-0.007-1.726-0.503-2.172-0.996c-1.795-1.998-2.545-4.191-1.599-6.584C388.281,80.166,389.706,79.412,391.762,79.331z"/>
	<path clip-path="url(#SVGID_2_)" fill-rule="evenodd" clip-rule="evenodd" fill="#999999" d="M450.391,92.314
		c2.335,0.202,4.337,0.351,6.335,0.535c3.998,0.383,7.73-0.519,11.444-1.37c3.828-0.879,7.594-1.894,11.396-2.842
		c4.92-1.197,10.117-0.236,13.288,4.558c3.945,5.971,10.301,9.682,18.153,12.257c3.543,1.17,7.226,2.107,10.735,3.325
		c1.482,0.524,2.825,1.388,3.965,2.284c1.365,1.093,1.12,2.963-0.511,3.82c-2.292,1.21-4.72,2.305-7.189,3.313
		c-2.625,1.077-4.894,2.36-6.149,4.47c-0.172,0.302-0.558,0.561-0.915,0.738c-3.623,1.746-5.473,4.298-6.497,7.362
		c-0.405,1.218-1.512,2.314-2.363,3.559c0.139,0.038,0.457,0.124,0.795,0.225c-0.086,0.039-0.152,0.107-0.232,0.109
		c-5.079,0.136-10.159,0.277-15.239,0.359c-0.518,0.004-1.143-0.218-1.563-0.474c-3.835-2.427-7.685-4.714-12.909-5.427
		c-4.138-0.566-5.254-3.343-2.568-5.717c1.436-1.28,2.991-2.5,4.623-3.642c1.205-0.85,2.346-1.63,1.634-2.995
		c-0.456-0.884-2.687-1.706-4.405-1.363c-2.885,0.549-5.725,1.288-8.533,2.016c-2.426,0.637-4.811,1.385-7.415,2.14
		c0.036,0.283,0.117,0.81,0.2,1.321C453.292,111.618,451.752,102.166,450.391,92.314z"/>
	<path clip-path="url(#SVGID_2_)" fill-rule="evenodd" clip-rule="evenodd" fill="#999999" d="M473.819,6.812
		c4.372,0.786,8.797,1.441,13.104,2.403c2.129,0.469,3.471,1.75,3.707,3.593c0.229,1.748,0.848,3.465,1.09,5.212
		c0.224,1.542-0.317,2.972-1.574,4.29c-1.664,1.749-1.197,4.042,1.054,5.712c2.081,1.539,4.373,2.935,6.285,4.582
		c1.985,1.707,3.769,3.562,4.565,5.82c0.732,2.101-0.205,4.062-2.061,5.356c-3.791,2.649-8.1,4.844-13.465,5.454
		c-3.49,0.396-6.684-0.306-9.848-1.328c-5.625-1.847-11.251-3.693-16.96-5.374c-3.669-1.076-6.824-2.625-8.609-5.21
		c-0.727-1.05-0.211-2.684,0.051-4.013c0.25-1.22,0.942-2.394,1.393-3.601c0.842-2.293,1.718-4.6,2.481-6.918
		c0.659-1.982,1.293-3.999,1.712-6.016c0.381-1.896,1.265-3.667,3.061-4.929c1.82-1.288,4.115-2.2,6.188-3.287
		C468.32,7.317,470.986,7.074,473.819,6.812z"/>
	<path clip-path="url(#SVGID_2_)" fill-rule="evenodd" clip-rule="evenodd" fill="#999999" d="M480.447,56.889
		c3.61-0.11,6.133,1.777,5.992,4.464c-0.083,1.66,1.166,2.891,3.596,3.107c2.76,0.248,4.85,1.319,6.868,2.56
		c3.116,1.921,2.289,5.79-1.535,6.72c-2.228,0.541-4.65,0.638-6.939,1.062c-1.903,0.353-3.882,0.684-5.562,1.39
		c-2.51,1.041-5.19,1.333-7.924,1.619c-2.526,0.273-4.549-0.652-6.236-1.817c-1.937-1.321-3.701-2.824-5.246-4.402
		c-1.598-1.639-1.368-3.398,0.549-4.885c1.341-1.037,2.957-1.905,4.581-2.713c1.427-0.694,2.688-1.354,3.433-2.622
		C473.786,58.352,476.503,57.019,480.447,56.889z"/>
</g>
</svg>
